<?xml version="1.0" encoding="UTF-8"?>
<svg version="1.1" xmlns="http://www.w3.org/2000/svg" width="1024" height="1024">
<path d="M0 0 C337.92 0 675.84 0 1024 0 C1024 337.92 1024 675.84 1024 1024 C686.08 1024 348.16 1024 0 1024 C0 686.08 0 348.16 0 0 Z " fill="#253138" transform="translate(0,0)"/>
<path d="M0 0 C337.92 0 675.84 0 1024 0 C1024 337.92 1024 675.84 1024 1024 C686.08 1024 348.16 1024 0 1024 C0 686.08 0 348.16 0 0 Z M386.26416016 51.22729492 C383.40440685 52.67263754 380.54056381 54.10957772 377.67578125 55.54492188 C367.91113325 60.4480732 358.20122648 65.44333184 348.54428101 70.55522156 C342.07884308 73.97361348 335.55746638 77.26113621 329 80.5 C320.60130278 84.67234315 312.26005525 88.92860229 303.98046875 93.33203125 C298.03359133 96.48397829 292.0281475 99.50679573 286 102.5 C279.41154474 105.77157522 272.86488204 109.09965913 266.375 112.5625 C257.00610631 117.55371593 247.50200738 122.26922257 238 127 C227.95588653 132.00072842 217.93092869 137.01461102 208.03515625 142.3046875 C201.4126265 145.82628681 194.70289322 149.16903005 187.98834229 152.51040649 C148.19293592 171.09690889 148.19293592 171.09690889 123.04296875 205.78515625 C119.63214936 216.2986557 119.71464615 226.66743786 119.73930359 237.60295105 C119.73628066 239.50242571 119.73239046 241.40189914 119.72771102 243.30137044 C119.71744039 248.50596433 119.71961049 253.71048925 119.72389162 258.91508877 C119.72636057 264.53421019 119.7173425 270.15331507 119.70985413 275.77243042 C119.69710924 286.77577795 119.69531322 297.77910108 119.69765439 308.78245475 C119.69943816 317.72850585 119.69768664 326.67454954 119.69342995 335.62059975 C119.69283476 336.89435554 119.69223957 338.16811132 119.69162634 339.48046577 C119.69041458 342.06822147 119.68920044 344.65597716 119.68798397 347.24373285 C119.68019756 364.61746975 119.67627699 381.99120174 119.68030071 399.36493969 C119.68045709 400.04399983 119.68061346 400.72305998 119.68077458 401.4226977 C119.68158032 404.86419922 119.6824261 408.30570073 119.68328788 411.74720224 C119.68345897 412.43065607 119.68363006 413.1141099 119.68380633 413.81827444 C119.68415299 415.20038402 119.68450152 416.5824936 119.68485192 417.96460318 C119.69020711 439.46217681 119.68228328 460.95970941 119.66381836 482.45727539 C119.64308103 506.62858534 119.63241015 530.79986213 119.63639385 554.9711836 C119.63830501 567.76226421 119.63582662 580.55330745 119.62167931 593.34438133 C119.60975546 604.23523575 119.60837182 615.1260298 119.62046947 626.01688506 C119.62635142 631.57010779 119.62747648 637.12322014 119.61546707 642.67643547 C119.60458561 647.76740537 119.60773859 652.85817303 119.62172876 657.94913355 C119.62436948 659.78354421 119.62202896 661.61797083 119.61399289 663.45236578 C119.49230371 693.32131309 129.42575598 717.90890745 150.24609375 739.30859375 C159.77323133 748.27633976 171.80640373 754.0547745 183.22387695 760.2277832 C189.98711746 763.88572705 196.69277449 767.6338157 203.375 771.4375 C212.31685337 776.52057452 221.32825308 781.46092887 230.3815918 786.34228516 C236.88227843 789.8483091 243.35622469 793.39686593 249.80664062 796.99438477 C258.04096854 801.58583876 266.29801345 806.13600894 274.55419922 810.68798828 C275.81738282 811.38444009 277.08056641 812.08089191 278.34375 812.77734375 C278.97532013 813.12553162 279.60689026 813.47371948 280.25759888 813.8324585 C284.66299483 816.26157652 289.06630817 818.69443918 293.46875 821.12890625 C295.91651072 822.48205315 298.36443715 823.83489977 300.8125 825.1875 C301.41569061 825.52079315 302.01888123 825.8540863 302.64035034 826.19747925 C310.86165467 830.73822379 319.10746206 835.23137755 327.375 839.6875 C336.09592126 844.38893169 344.73478547 849.22000491 353.34594727 854.11914062 C361.30137254 858.63359091 369.33095853 863.00159611 377.38208008 867.3425293 C383.88258899 870.848499 390.35638362 874.39695456 396.80664062 877.99438477 C403.79703881 881.89222463 410.80375226 885.76028821 417.8125 889.625 C419.06339648 890.31485768 420.31429165 891.00471772 421.56518555 891.69458008 C424.10931979 893.09759363 426.65352147 894.50048483 429.19775391 895.90332031 C434.69861537 898.9364974 440.19857571 901.97130763 445.69857788 905.00604248 C448.71567918 906.67076642 451.73284284 908.33537732 454.75 910 C455.95833363 910.66666613 457.16666696 911.3333328 458.375 912 C458.973125 912.33 459.57125 912.66 460.1875 913 C462 914 463.8125 915 465.625 916 C466.22305954 916.32995972 466.82111908 916.65991943 467.43730164 916.99987793 C468.64631043 917.66692568 469.85530496 918.33399928 471.06428528 919.00109863 C474.07466811 920.66214621 477.08529281 922.3227522 480.09643555 923.98242188 C486.30554704 927.40539427 492.50980577 930.83680035 498.70703125 934.28125 C513.82594336 942.71443445 513.82594336 942.71443445 529.125 950.8125 C530.22070312 951.37582031 531.31640625 951.93914063 532.4453125 952.51953125 C547.28842985 958.70144496 565.63145477 959.93712065 580.76171875 953.99609375 C595.9794218 947.02780754 610.64896203 938.80404108 625.30786133 930.74731445 C633.41445407 926.29556584 641.57801039 921.9550361 649.75 917.625 C659.51750048 912.44862999 669.27315512 907.25255704 679 902 C689.28637231 896.44683232 699.60206039 890.95073034 709.92877197 885.47311401 C719.25632102 880.52526578 728.57215265 875.55668834 737.875 870.5625 C749.08653826 864.54364023 760.33085344 858.58849033 771.58322144 852.64639282 C781.10130662 847.61829829 790.57749789 842.52384775 800.00927734 837.33520508 C808.2562036 832.81851103 816.61183549 828.51854139 824.9699707 824.2121582 C832.96811412 820.08123645 840.88880313 815.82903728 848.76879883 811.47753906 C853.65423741 808.79021215 858.56821799 806.17853503 863.53515625 803.64453125 C865.19683838 802.79483765 865.19683838 802.79483765 866.89208984 801.92797852 C869.01192499 800.84858698 871.13566828 799.77681873 873.26416016 798.71459961 C891.88337784 789.22722704 904.49473894 776.68148489 912 757 C915.29181816 746.52135047 915.42794073 736.41848986 915.38768005 725.56777954 C915.39185931 723.72346116 915.39734006 721.87914536 915.40399987 720.03483427 C915.41839543 714.99660971 915.41422823 709.95854955 915.40683305 704.92031622 C915.40208907 699.47506539 915.41462208 694.0298495 915.42485046 688.58460999 C915.4420196 677.92857849 915.44288239 667.27260602 915.43763756 656.61656429 C915.43359118 647.95280899 915.43504497 639.28907109 915.44038582 630.62531662 C915.44113424 629.39082236 915.44188266 628.1563281 915.44265376 626.88442492 C915.44418529 624.37631182 915.44572364 621.86819874 915.44726873 619.36008565 C915.46059606 596.52555153 915.45628055 573.69104625 915.44505819 550.85651304 C915.43495723 530.03647284 915.44331144 509.21651332 915.46655273 488.39648438 C915.49265295 464.97776093 915.50541642 441.5590829 915.49836498 418.14034402 C915.49487522 405.75059719 915.49708887 393.36091658 915.51461601 380.97117996 C915.52935141 370.4243991 915.52995583 359.8777311 915.5125451 349.33095242 C915.50404393 343.95387558 915.50186412 338.57700024 915.51719666 333.19993401 C915.53107974 328.27000952 915.52623407 323.34045849 915.50695742 318.41055541 C915.50320822 316.63478145 915.50608795 314.85897732 915.51656907 313.08323033 C915.62742933 292.84931591 910.8551719 275.06274864 898 259 C897.46761719 258.29101562 896.93523438 257.58203125 896.38671875 256.8515625 C886.66329135 244.64299112 871.44431097 238.43085878 857.87890625 231.52734375 C852.02240519 228.54311374 846.24817245 225.43667316 840.5 222.25 C830.93382579 216.96734903 821.22859337 211.97431434 811.5 207 C800.85527444 201.55718293 790.26708774 196.04671083 779.80078125 190.265625 C773.08949708 186.56673403 766.3085571 183.01626822 759.5 179.5 C751.65450407 175.44757442 743.86056873 171.32102686 736.125 167.0625 C726.82971589 161.9467013 717.42919527 157.05385789 707.99707031 152.19580078 C701.23431571 148.70365258 694.53209797 145.12637772 687.875 141.4375 C675.450305 134.57037143 662.78003459 128.17580604 650.13037109 121.73608398 C639.38172782 116.26195903 628.68256481 110.70297221 618.01864624 105.06561279 C613.60446891 102.7354354 609.17688355 100.4309137 604.75 98.125 C603.80092773 97.63016113 602.85185547 97.13532227 601.87402344 96.62548828 C598.91619674 95.08331112 595.9581329 93.54158974 593 92 C589.08310756 89.95876609 585.1664094 87.91716055 581.25 85.875 C579.80101318 85.11956909 579.80101318 85.11956909 578.32275391 84.34887695 C573.31299136 81.7351802 568.30936364 79.11051539 563.31396484 76.46948242 C552.34638699 70.67254382 541.31838313 64.99423007 530.27978516 59.33398438 C524.09531022 56.16007047 517.91940493 52.97900126 511.8046875 49.671875 C468.80984907 26.44283656 429.01325433 29.62084903 386.26416016 51.22729492 Z " fill="#FEFEFE" transform="translate(0,0)"/>
<path d="M0 0 C3.39448259 1.82642052 6.79716215 3.63711798 10.20214844 5.44384766 C11.15268349 5.94822861 11.15268349 5.94822861 12.12242126 6.46279907 C13.44295035 7.16343346 14.76350234 7.86402468 16.08407593 8.5645752 C18.84093377 10.02769007 21.59671319 11.49283014 24.3525238 12.95791626 C33.53949222 17.84176559 42.73288809 22.71341359 51.92871094 27.58056641 C53.34611055 28.33089093 54.76350964 29.08121646 56.1809082 29.83154297 C62.66715185 33.26482818 69.15418663 36.69660735 75.64292908 40.12516785 C79.28019841 42.04715395 82.91706955 43.96989243 86.55371094 45.89306641 C87.26401459 46.26867706 87.97431824 46.64428772 88.70614624 47.03128052 C99.13617853 52.54866073 109.53433812 58.12182999 119.9140625 63.73339844 C126.84567431 67.47393951 133.81182116 71.14159207 140.80371094 74.76806641 C148.03735202 78.52066363 155.22392315 82.34441476 162.36621094 86.26806641 C171.75481057 91.4244681 181.20743606 96.45333488 190.67871094 101.45556641 C207.97428964 110.591924 225.22813647 119.80305928 242.44433594 129.08837891 C244.56411691 130.23162791 246.68390858 131.37485706 248.80371094 132.51806641 C249.85075195 133.08283691 250.89779297 133.64760742 251.9765625 134.22949219 C261.42053306 139.31657207 270.89639074 144.3426528 280.37460327 149.36550903 C289.69683631 154.30720406 298.98126634 159.31074868 308.22900391 164.39086914 C314.74959532 167.9613761 321.32868789 171.40949321 327.92871094 174.83056641 C331.6396488 176.76311344 335.34765584 178.70117376 339.05371094 180.64306641 C339.84632324 181.05685547 340.63893555 181.47064453 341.45556641 181.89697266 C357.2051821 190.18012918 370.0141979 200.26852528 376.05371094 217.64306641 C378.79230993 227.0340848 378.33600013 236.75160775 378.31440735 246.43151855 C378.31743019 248.35105586 378.32132034 250.27059196 378.32599992 252.19012594 C378.33627125 257.44997897 378.33410029 262.70976377 378.32981932 267.96962237 C378.32735058 273.64795334 378.33636803 279.32626794 378.34385681 285.0045929 C378.35660105 296.12256927 378.3583979 307.24052149 378.35605655 318.35850394 C378.35427316 327.39470096 378.35602347 336.43089065 378.36028099 345.46708679 C378.36087618 346.75338764 378.36147137 348.03968849 378.36208459 349.36496815 C378.36329635 351.9781005 378.36451048 354.59123285 378.36572697 357.20436519 C378.37351285 374.74680209 378.3774342 392.28923453 378.37341022 409.83167267 C378.37325385 410.51729035 378.37309747 411.20290802 378.37293636 411.90930199 C378.3721306 415.38410952 378.37128483 418.85891704 378.37042306 422.33372456 C378.37016642 423.36884692 378.37016642 423.36884692 378.36990461 424.42488084 C378.36955795 425.82039145 378.36920942 427.21590206 378.36885902 428.61141267 C378.36350062 450.33047606 378.37143703 472.04949886 378.38989258 493.76855469 C378.41061338 518.18189697 378.42130419 542.595208 378.41731709 567.00856066 C378.41540392 579.93082643 378.41790411 592.85305521 378.43203163 605.77531433 C378.44393488 616.77427505 378.44536204 627.773176 378.43324146 638.77213752 C378.42734582 644.38347309 378.42627246 649.99469927 378.43824387 655.6060276 C378.44907854 660.74422965 378.44602799 665.88223068 378.43198218 671.02042323 C378.42932864 672.87762498 378.43172236 674.73484236 378.43971805 676.5920288 C378.53423121 700.18536598 378.53423121 700.18536598 370.75683594 708.17041016 C364.47636695 713.60099917 358.33459325 714.53981556 350.06542969 714.25634766 C343.55642804 713.50152225 338.21605315 710.29143567 332.62939453 707.09472656 C329.59574359 705.38495514 326.52578297 703.75297494 323.44824219 702.12353516 C311.85994853 695.98781958 300.33344216 689.7438638 288.88964844 683.34228516 C282.68829406 679.87415975 276.46350152 676.44842491 270.24121094 673.01806641 C268.98998003 672.32806212 267.73875939 671.63803922 266.48754883 670.94799805 C263.94374551 669.54513745 261.39987278 668.14240281 258.85595703 666.73974609 C253.95457662 664.03712309 249.05392374 661.33318194 244.15332031 658.62915039 C241.7497843 657.30294209 239.34613218 655.97694461 236.94238281 654.65112305 C231.45632336 651.62505771 225.97084595 648.5979579 220.48797607 645.56611633 C217.40607068 643.86196676 214.32373908 642.15858923 211.24121094 640.45556641 C210.63702332 640.12172943 210.03283569 639.78789246 209.41033936 639.44393921 C201.19004429 634.9037417 192.94528282 630.4110627 184.67871094 625.95556641 C177.00016747 621.81697021 169.38215839 617.58708643 161.80371094 613.26806641 C152.70233123 608.08199425 143.49929663 603.10289148 134.25152588 598.18460083 C126.32904983 593.96853611 118.47027076 589.65946514 110.67871094 585.20556641 C101.25023463 579.81786566 91.69939787 574.69083228 82.10345459 569.61056519 C73.93316206 565.2823333 65.82575851 560.8670632 57.80371094 556.26806641 C47.60640693 550.42632082 37.23504097 544.94335192 26.83413696 539.47640991 C16.69972367 534.14623292 6.65561767 528.69510568 -3.27539062 522.99169922 C-8.13268916 520.20718104 -13.02188499 517.54404557 -18.01269531 515.00683594 C-35.12542844 506.27827058 -47.59406154 494.04522015 -53.94628906 475.64306641 C-56.70684284 466.349213 -56.23166479 456.67306593 -56.2137146 447.08239746 C-56.21745422 445.18760863 -56.22205698 443.29282134 -56.22744524 441.39803648 C-56.23965154 436.20659595 -56.23941759 431.01521998 -56.23705649 425.82376838 C-56.23664774 420.21905514 -56.24769285 414.61436244 -56.25717163 409.00965881 C-56.27376826 398.03606594 -56.27928052 387.06249457 -56.28039639 376.08889019 C-56.28134724 367.16996971 -56.28545939 358.25105631 -56.29179764 349.33213806 C-56.30654072 328.15521504 -56.31884783 306.97829711 -56.31780052 285.80136871 C-56.31776936 285.1246482 -56.31773821 284.44792768 -56.31770611 283.75070048 C-56.3175399 280.32099226 -56.31734182 276.89128403 -56.31713669 273.46157581 C-56.31707685 272.4398899 -56.31707685 272.4398899 -56.31701581 271.39756388 C-56.31693494 270.02016781 -56.31685134 268.64277174 -56.31676503 267.26537567 C-56.31553912 245.82825719 -56.33056271 224.39120195 -56.35791016 202.95410156 C-56.38863826 178.8571834 -56.40581698 154.76031765 -56.40398371 130.66337442 C-56.40331956 117.90876803 -56.40882339 105.15423299 -56.43033981 92.39964294 C-56.44853672 81.54340161 -56.45291095 70.687264 -56.43932097 59.83101404 C-56.43278461 54.29255429 -56.43269856 48.75429363 -56.45002747 43.21585274 C-56.46573274 38.14421401 -56.46292042 33.07293266 -56.4454592 28.00130278 C-56.44238379 26.16832529 -56.44604203 24.3353213 -56.45717935 22.50237507 C-56.51815335 11.7542259 -55.90765784 3.1510294 -50.19628906 -6.23193359 C-34.84767834 -20.72784372 -15.16413346 -8.18352236 0 0 Z " fill="#B8BEC1" transform="translate(199.9462890625,214.35693359375)"/>
<path d="M0 0 C4.49337912 2.39863566 9.01397157 4.73980895 13.546875 7.0625 C14.23731903 7.41632248 14.92776306 7.77014496 15.63912964 8.13468933 C17.06531716 8.86535621 18.49153624 9.59596149 19.91778564 10.32650757 C31.10121516 16.05705892 42.24718525 21.83189095 53.22192383 27.95654297 C58.88636498 31.1015477 64.64333273 34.02471309 70.44415283 36.9070282 C78.02921349 40.67743773 85.55897448 44.55272219 93.0859375 48.4375 C93.80632202 48.80889099 94.52670654 49.18028198 95.2689209 49.56292725 C104.08749558 54.10954067 112.8943752 58.67621586 121.66210938 63.3203125 C126.29026827 65.76785705 130.93462975 68.18247718 135.58984375 70.578125 C147.59547546 76.75814244 159.56095534 82.98147302 171.38598633 89.50341797 C178.94783224 93.65548083 186.60126776 97.61986413 194.2734375 101.5625 C204.87240271 107.00987193 215.37611774 112.60823874 225.8203125 118.34765625 C235.2720221 123.54096372 244.78490665 128.61141558 254.4609375 133.375 C260.33942649 136.28758468 266.08933461 139.39848927 271.8359375 142.5625 C280.57631724 147.37319154 289.39997291 152.0040376 298.2734375 156.5625 C307.84034425 161.47860422 317.33795769 166.49907954 326.76025391 171.68847656 C337.00695758 177.3194615 347.38803931 182.69282612 357.7734375 188.0625 C354.11105304 191.20168668 350.34396555 193.47580534 346.0234375 195.5625 C345.34732422 195.89507812 344.67121094 196.22765625 343.97460938 196.5703125 C336.42909724 200.26661624 328.84476351 203.88567809 321.25878906 207.49804688 C315.8605004 210.0739865 310.48680638 212.69273755 305.13891602 215.37182617 C304.12766584 215.87813836 304.12766584 215.87813836 303.09598637 216.39467907 C301.54062316 217.17346247 299.98536138 217.95244847 298.4301796 218.73159409 C294.37899342 220.76105251 290.32711013 222.78911802 286.27532864 224.81738758 C283.88701625 226.0129697 281.49872801 227.20859989 279.11048222 228.40431499 C268.19645369 233.86856884 257.28136516 239.3307032 246.36593533 244.79215717 C239.06429163 248.44555074 231.76302771 252.0996995 224.46264648 255.75561523 C218.03750184 258.97322299 211.61161838 262.18934997 205.18489987 265.40381306 C201.80636905 267.09371987 198.42817093 268.78428295 195.0508709 270.47664833 C180.64777509 277.69344683 166.21409942 284.83232016 151.65693665 291.7348938 C144.22778539 295.26127534 136.87316669 298.93668589 129.5234375 302.625 C128.80250916 302.98590729 128.08158081 303.34681458 127.33880615 303.71865845 C118.8176198 307.98534773 110.32107813 312.29100653 101.8984375 316.75 C101.16375244 317.13784668 100.42906738 317.52569336 99.67211914 317.92529297 C96.49681545 319.60548521 93.33301376 321.30304841 90.18359375 323.03125 C88.58837891 323.88203125 88.58837891 323.88203125 86.9609375 324.75 C86.08824219 325.22824219 85.21554687 325.70648438 84.31640625 326.19921875 C81.01222128 327.32091595 79.11061584 327.02852531 75.7734375 326.0625 C73.44921875 324.56640625 73.44921875 324.56640625 71.0859375 322.625 C63.97734205 317.22862375 56.17842676 313.37035387 48.24658203 309.32714844 C44.38532952 307.35268763 40.54773514 305.33396775 36.7109375 303.3125 C35.94225342 302.90829834 35.17356934 302.50409668 34.3815918 302.08764648 C21.16487459 295.12422986 8.02904555 288.0063225 -5.09765625 280.875 C-16.44338767 274.71208889 -27.81905123 268.6100556 -39.2265625 262.5625 C-53.55240496 254.96752084 -67.81949745 247.26882327 -82.0625 239.51953125 C-104.77399023 227.16821396 -127.58376708 215.00503213 -150.53564453 203.10620117 C-156.63688981 199.92955172 -162.63987912 196.61102479 -168.61230469 193.19970703 C-172.83365288 190.80371908 -177.11788639 188.57432821 -181.4765625 186.4375 C-188.92739328 182.78269521 -196.23393133 178.87396749 -203.5390625 174.9375 C-214.22058682 169.18407825 -224.95027601 163.53752575 -235.73193359 157.97314453 C-241.18132043 155.16058343 -246.6201849 152.33264881 -252.03173828 149.44799805 C-268.64989412 140.59855417 -285.58411192 132.34637313 -302.4397583 123.96154785 C-304.5840301 122.89462329 -306.72762137 121.826342 -308.87109375 120.7578125 C-309.8184565 120.28708817 -309.8184565 120.28708817 -310.78495789 119.80685425 C-317.00929041 116.70133742 -323.12633113 113.40509253 -329.2265625 110.0625 C-326.03077859 107.5003629 -322.69356962 105.64131681 -319.0546875 103.76953125 C-318.45460876 103.45980881 -317.85453003 103.15008636 -317.23626709 102.83097839 C-315.31812155 101.84219709 -313.39735096 100.85863543 -311.4765625 99.875 C-310.23290973 99.23404049 -308.98941882 98.59276682 -307.74609375 97.95117188 C-298.61093699 93.24516167 -289.42488927 88.64347683 -280.2265625 84.0625 C-273.3352532 80.62832476 -266.44482827 77.19238179 -259.55541992 73.75439453 C-257.46691275 72.71265683 -255.37804729 71.6716371 -253.28881836 70.63134766 C-242.04682196 65.0328458 -230.84262446 59.38253306 -219.74638367 53.49978638 C-212.96146998 49.90616248 -206.10915201 46.46580137 -199.2265625 43.0625 C-188.14003124 37.5546851 -177.14695952 31.89250287 -166.2265625 26.0625 C-163.33178812 24.51883571 -160.43612618 22.97686387 -157.5390625 21.4375 C-156.84208252 21.06713623 -156.14510254 20.69677246 -155.42700195 20.31518555 C-150.07312826 17.48262376 -144.66777113 14.76450775 -139.23876953 12.0793457 C-134.414073 9.68354871 -129.65971358 7.17316289 -124.9140625 4.625 C-116.50727042 0.12657755 -107.93128193 -3.96858585 -99.28125 -7.97558594 C-97.52373228 -8.79837822 -95.77986095 -9.65021326 -94.0390625 -10.5078125 C-87.3071649 -13.77591395 -80.56783337 -15.54275277 -73.2265625 -16.9375 C-71.85371094 -17.21400391 -71.85371094 -17.21400391 -70.453125 -17.49609375 C-43.95738252 -21.12081397 -22.79681515 -12.20673371 0 0 Z " fill="#394750" transform="translate(508.2265625,67.9375)"/>
<path d="M0 0 C2.92407227 1.09472656 2.92407227 1.09472656 5.81640625 2.640625 C7.4396582 3.49527344 7.4396582 3.49527344 9.09570312 4.3671875 C10.23974609 4.98851562 11.38378906 5.60984375 12.5625 6.25 C13.77346355 6.89440502 14.98506175 7.53761872 16.19726562 8.1796875 C19.80945629 10.09933246 23.40597821 12.04653987 27 14 C27.98081543 14.53302734 28.96163086 15.06605469 29.97216797 15.61523438 C33.53244321 17.55478257 37.08990339 19.49928708 40.64208984 21.45361328 C51.29543008 27.29951046 62.11211518 32.83052138 72.91015625 38.40283203 C90.22865558 47.35491978 107.38608947 56.61030246 124.46875 66.00390625 C137.84716402 73.35360988 151.36333921 80.41186626 164.92773438 87.41162109 C175.64467015 92.95233821 186.29441353 98.61655674 196.92163086 104.32714844 C197.8035762 104.80106018 197.8035762 104.80106018 198.70333862 105.2845459 C199.90124389 105.92825237 201.09909952 106.57205122 202.29690552 107.21594238 C212.24475236 112.56039064 222.25513443 117.77543215 232.29296875 122.94921875 C239.08166907 126.4581628 245.81101166 130.05499116 252.5 133.75 C262.06714122 139.03112685 271.77186111 144.02454948 281.5 149 C291.58893348 154.16386637 301.66500401 159.34014955 311.625 164.75 C312.46353516 165.20246094 313.30207031 165.65492188 314.16601562 166.12109375 C333.43560732 176.68368475 333.43560732 176.68368475 337 186 C337.20391018 188.73167146 337.30409545 191.35848597 337.30078125 194.08984375 C337.30506638 194.87138321 337.3093515 195.65292267 337.31376648 196.45814514 C337.31949915 198.10807325 337.32001787 199.75802663 337.31567383 201.40795898 C337.31251517 203.92540831 337.33598036 206.44168034 337.36132812 208.95898438 C337.36360145 210.56510269 337.36430446 212.17122415 337.36328125 213.77734375 C337.372491 214.52644516 337.38170074 215.27554657 337.39118958 216.04734802 C337.34781575 220.97369543 336.54827416 224.45172584 333 228 C326.58143217 228.78842165 321.99620989 227.62410688 316.45703125 224.484375 C315.77516251 224.11761154 315.09329376 223.75084808 314.39076233 223.37297058 C312.18800571 222.18273603 310.00064242 220.96685777 307.8125 219.75 C306.27517671 218.91309279 304.73691823 218.07790126 303.19775391 217.24438477 C299.44511692 215.2071604 295.70379349 213.15021772 291.9664917 211.08502197 C289.31770314 209.62353918 286.66139318 208.17606327 284.00390625 206.73046875 C281.44813281 205.33972567 278.89328479 203.94753522 276.3425293 202.54760742 C267.61756319 197.76247437 258.82251703 193.11103298 250.02966309 188.45233154 C241.37155903 183.86426992 232.73119431 179.24749796 224.125 174.5625 C213.80963636 168.95022478 203.43708111 163.4496344 193.05361938 157.96481323 C183.12162135 152.71845271 173.20687412 147.44196704 163.3125 142.125 C154.0091635 137.12618251 144.66884783 132.20658853 135.29370117 127.34399414 C127.9423119 123.51957569 120.67053649 119.5607883 113.40869141 115.56958008 C106.48946811 111.78007129 99.50877087 108.12083075 92.5 104.5 C84.80498757 100.52315845 77.1527688 96.48585844 69.5625 92.3125 C60.9058969 87.55345771 52.19451305 82.90514931 43.45953369 78.29217529 C41.26003194 77.13029932 39.06128511 75.96700774 36.86279297 74.80322266 C30.60977701 71.4935014 24.35612108 68.18526089 18.09170532 64.89715576 C16.26017703 63.93399601 14.43089178 62.96673113 12.60253906 61.99755859 C10.39085183 60.82530744 8.17556189 59.65981816 5.95605469 58.50244141 C0.94887892 55.8361655 -3.37940543 53.47722323 -7 49 C-7.45528076 48.52159668 -7.91056152 48.04319336 -8.37963867 47.55029297 C-13.52770171 41.17495479 -12.7523712 33.0616956 -12.65185547 25.2902832 C-12.62494278 22.80722056 -12.65172677 20.32863146 -12.68359375 17.84570312 C-12.6802914 16.25780259 -12.67388877 14.66990482 -12.6640625 13.08203125 C-12.67418365 12.34547806 -12.68430481 11.60892487 -12.69473267 10.85005188 C-12.60916339 7.07918046 -12.07442647 5.10630256 -9.89599609 1.99487305 C-6.22781148 -0.53191303 -4.38048206 -0.58908373 0 0 Z " fill="#243038" transform="translate(198,278)"/>
<path d="M0 0 C5.33027298 0.94928683 9.58895715 3.34393803 14.21484375 6.05859375 C16.14946079 7.15383881 18.08577871 8.24608281 20.0234375 9.3359375 C21.08804199 9.93776855 22.15264648 10.53959961 23.24951172 11.15966797 C29.28788319 14.54075233 35.43032008 17.73100525 41.55502319 20.95196533 C52.56129352 26.74219365 63.53355833 32.58592768 74.43359375 38.57421875 C82.50798637 42.99937386 90.641103 47.31115789 98.77734375 51.62109375 C108.80573503 56.93417386 118.80953859 62.28557162 128.76269531 67.73876953 C135.66811629 71.52141428 142.59342101 75.265962 149.52734375 78.99609375 C150.61289551 79.58011963 151.69844727 80.16414551 152.81689453 80.76586914 C156.1367928 82.55141218 159.4570079 84.33636457 162.77734375 86.12109375 C167.19441835 88.49533608 171.61116165 90.87019171 176.02734375 93.24609375 C177.11418457 93.83076416 178.20102539 94.41543457 179.32080078 95.01782227 C186.02912286 98.63034504 192.72036605 102.27262991 199.40234375 105.93359375 C209.18189833 111.28889093 219.02764987 116.51591981 228.88024902 121.73504639 C237.16626377 126.12521016 245.43356454 130.54333851 253.65234375 135.05859375 C262.97525414 140.17902299 272.37138223 145.15560435 281.77734375 150.12109375 C291.63478418 155.32691664 301.48596276 160.5416079 311.27734375 165.87109375 C312.11136719 166.32355469 312.94539063 166.77601563 313.8046875 167.2421875 C336.55033253 179.67946138 336.55033253 179.67946138 339.34057617 187.75024414 C339.9675482 191.15355627 339.98068308 194.542655 340.015625 197.9921875 C340.02369675 198.75153091 340.03176849 199.51087433 340.04008484 200.29322815 C340.05388439 201.89606468 340.06462492 203.4989301 340.07250977 205.10180664 C340.08405374 206.73796215 340.10454377 208.3740793 340.1340332 210.01000977 C340.17672148 212.37932816 340.19287681 214.74753227 340.203125 217.1171875 C340.22063309 217.84441513 340.23814117 218.57164276 340.25617981 219.32090759 C340.24098229 222.89195804 339.85419647 224.99247896 338.00878906 228.08081055 C335.62424287 230.26107888 334.8161966 230.81260022 331.6484375 230.76953125 C325.85879311 230.41835803 321.67885034 227.73833182 316.83984375 224.74609375 C314.81409819 223.54716935 312.78524737 222.35348171 310.75390625 221.1640625 C309.64821289 220.5148584 308.54251953 219.8656543 307.40332031 219.19677734 C300.62283611 215.27496174 293.64997104 211.69675436 286.71484375 208.05859375 C283.77266775 206.51057388 280.83149161 204.96066199 277.890625 203.41015625 C277.18298508 203.0372496 276.47534515 202.66434296 275.7462616 202.28013611 C269.93723385 199.21492799 264.16061431 196.09317663 258.40234375 192.93359375 C250.30275959 188.48970342 242.17396677 184.10315159 234.02734375 179.74609375 C232.83593277 179.10873281 231.64452651 178.47136302 230.453125 177.83398438 C229.86335876 177.51847626 229.27359253 177.20296814 228.66595459 176.87789917 C228.07622864 176.56241119 227.48650269 176.24692322 226.87890625 175.921875 C226.28837463 175.60598419 225.69784302 175.29009338 225.0894165 174.96463013 C211.03878239 167.447 197.0056025 159.89752818 183.02734375 152.24609375 C174.31041569 147.47522285 165.54997792 142.78838977 156.77734375 138.12109375 C146.19156162 132.48889568 135.63924572 126.80077541 125.12109375 121.04296875 C119.39072853 117.90612438 113.64750364 114.79324025 107.90234375 111.68359375 C106.90267578 111.14250977 105.90300781 110.60142578 104.87304688 110.04394531 C102.84899203 108.94850545 100.82490342 107.85312797 98.80078125 106.7578125 C95.81316925 105.14048766 92.82636387 103.52168382 89.83984375 101.90234375 C72.76360335 92.64415807 55.67640059 83.40591509 38.54296875 74.25390625 C31.61542976 70.5534745 24.69318386 66.84336114 17.77734375 63.12109375 C16.82633789 62.6096582 15.87533203 62.09822266 14.89550781 61.57128906 C12.3932735 60.22097847 9.89667447 58.86093604 7.40234375 57.49609375 C6.70173828 57.1187207 6.00113281 56.74134766 5.27929688 56.35253906 C-1.57566665 52.57037262 -6.83054127 48.98117654 -9.22265625 41.12109375 C-9.63597 38.31976421 -9.69063175 35.5670404 -9.69140625 32.73828125 C-9.69901978 31.96098663 -9.7066333 31.18369202 -9.71447754 30.38284302 C-9.72521841 28.75086664 -9.72815629 27.11882186 -9.72363281 25.48681641 C-9.72265592 22.99525982 -9.76443372 20.50674151 -9.80859375 18.015625 C-9.8137984 16.42318346 -9.81648898 14.83073129 -9.81640625 13.23828125 C-9.83280151 12.498591 -9.84919678 11.75890076 -9.86608887 10.99679565 C-9.81398013 7.08937367 -9.33396925 5.26798483 -6.94946289 2.12133789 C-4.14799158 0.06632361 -3.34077696 -0.51291873 0 0 Z " fill="#253038" transform="translate(195.22265625,503.87890625)"/>
<path d="M0 0 C3.11328125 1.1796875 3.11328125 1.1796875 6.3125 2.875 C6.91094727 3.18816162 7.50939453 3.50132324 8.12597656 3.82397461 C10.09492866 4.86359139 12.04881096 5.92744163 14 7 C14.65339355 7.35884277 15.30678711 7.71768555 15.97998047 8.08740234 C18.82651411 9.65716672 21.66763901 11.23627438 24.50366211 12.82495117 C41.37065763 22.26984144 58.49032389 31.26720056 75.53222656 40.39111328 C88.77063706 47.4801041 101.98970157 54.60491828 115.20898438 61.72949219 C130.94966366 70.21223516 146.7036119 78.6698703 162.46777344 87.10888672 C167.14685099 89.61383927 171.82513372 92.12027523 176.50341797 94.62670898 C178.83832078 95.87763129 181.17328191 97.12844474 183.50830078 98.37915039 C189.29291193 101.4776178 195.07685694 104.57731543 200.859375 107.6796875 C213.22584872 114.31261431 225.60445916 120.92159463 238 127.5 C251.56081662 134.69712578 265.10302704 141.92787886 278.62841797 149.19140625 C282.01196943 151.00642068 285.39833703 152.8160918 288.78515625 154.625 C295.20420343 158.05759553 301.60613424 161.5207604 308 165 C309.01400879 165.54849609 310.02801758 166.09699219 311.07275391 166.66210938 C313.97411735 168.23825165 316.86349621 169.83433982 319.75 171.4375 C321.02701782 172.12718872 321.02701782 172.12718872 322.32983398 172.83081055 C328.69088702 176.40950837 334.35758147 180.96951988 337 188 C337.2156546 190.73120212 337.32784297 193.35804948 337.3359375 196.08984375 C337.3425943 196.87138321 337.3492511 197.65292267 337.35610962 198.45814514 C337.36621632 200.10805921 337.37092725 201.75801399 337.37060547 203.40795898 C337.37497942 205.92565509 337.41131891 208.44159814 337.44921875 210.95898438 C337.45508731 212.5650982 337.45905644 214.17122031 337.4609375 215.77734375 C337.47530853 216.52644516 337.48967957 217.27554657 337.50448608 218.04734802 C337.47295691 221.67235197 337.09800708 223.83735992 335.21264648 226.96606445 C333 229 333 229 329.13671875 229.765625 C321.99487314 229.34011614 315.90116697 225.18672018 309.8125 221.75 C308.46355175 221.00715733 307.11360257 220.26612958 305.76269531 219.52685547 C302.42770411 217.69724536 299.10392067 215.84831841 295.78302002 213.99328613 C291.62128054 211.67486117 287.43328663 209.40421191 283.25 207.125 C282.40542236 206.6619043 281.56084473 206.19880859 280.69067383 205.72167969 C271.43096767 200.65448993 262.08969822 195.74222958 252.75506592 190.81503296 C243.24499281 185.79394404 233.7656927 180.7258205 224.34155273 175.54467773 C219.03522249 172.63497944 213.70557144 169.77344518 208.35546875 166.9453125 C207.3452491 166.41127808 207.3452491 166.41127808 206.31462097 165.86645508 C204.92950923 165.13443315 203.54437203 164.40245938 202.15921021 163.67053223 C191.06611471 157.80824984 180.06152983 151.83656101 169.17041016 145.60400391 C161.71936369 141.35862474 154.1511493 137.37237045 146.53271484 133.43701172 C140.16313512 130.14277335 133.84720191 126.76572915 127.5625 123.3125 C118.50007061 118.33657723 109.38494673 113.46594695 100.25 108.625 C89.34051947 102.84262098 78.44936884 97.02852879 67.58251953 91.16625977 C59.77030548 86.95195012 51.949834 82.7533287 44.125 78.5625 C42.39999268 77.63703369 42.39999268 77.63703369 40.64013672 76.69287109 C35.19467284 73.77297188 29.74549538 70.86110225 24.28018188 67.97850037 C21.75089464 66.64373383 19.22420307 65.30409484 16.69769287 63.96408081 C14.9378444 63.03324042 13.17430751 62.10938366 11.41064453 61.18579102 C6.31561223 58.481156 1.29229654 55.69347106 -3.5546875 52.5625 C-4.32022949 52.06878906 -5.08577148 51.57507813 -5.87451172 51.06640625 C-10.55765765 46.51343736 -12.43641559 41.17999887 -12.58143616 34.73310852 C-12.57647629 34.00262802 -12.57151642 33.27214752 -12.56640625 32.51953125 C-12.57570412 31.35571175 -12.57570412 31.35571175 -12.58518982 30.16838074 C-12.59224145 28.54236089 -12.58919612 26.91626812 -12.57641602 25.2902832 C-12.56247143 22.80741267 -12.59677605 20.32826088 -12.63476562 17.84570312 C-12.6357163 16.25781158 -12.63386079 14.66991535 -12.62890625 13.08203125 C-12.64879356 11.97720146 -12.64879356 11.97720146 -12.66908264 10.85005188 C-12.59826819 6.92572497 -12.11884973 5.15199939 -9.67431641 2.02563477 C-6.15342768 -0.64122791 -4.33464055 -0.59559946 0 0 Z " fill="#253038" transform="translate(198,391)"/>
<path d="M0 0 C6.52999173 1.31118815 12.35403557 4.93033623 18.1640625 8.05078125 C19.46329646 8.73709253 20.76302641 9.42246564 22.06323242 10.10693359 C25.89865714 12.13197644 29.72078842 14.18111811 33.5390625 16.23828125 C34.56563965 16.79080566 35.5922168 17.34333008 36.64990234 17.91259766 C42.05012649 20.82870012 47.43110658 23.77883647 52.80712891 26.73925781 C57.70600375 29.42729102 62.62353298 32.08086613 67.5390625 34.73828125 C75.17280207 38.86825005 82.79786062 43.01356704 90.4140625 47.17578125 C102.75909201 53.91895826 115.14895067 60.57841457 127.5390625 67.23828125 C140.78563316 74.3585071 154.02450351 81.49088393 167.22070312 88.70410156 C178.63116866 94.93584463 190.08733431 101.08280953 201.5390625 107.23828125 C226.15893714 120.47182465 226.15893714 120.47182465 238.4140625 127.17578125 C247.32016733 132.04709872 256.26155592 136.85106583 265.21325684 141.63787842 C274.3467845 146.5222223 283.46686767 151.43054169 292.56591797 156.37890625 C297.28188242 158.94163881 302.00387599 161.49114895 306.74679565 164.0037384 C308.52349165 164.94510805 310.29876949 165.88910389 312.07373047 166.83374023 C314.3172136 168.02629203 316.56346782 169.21365133 318.81298828 170.39477539 C337.18758775 180.183857 337.18758775 180.183857 340.5390625 190.23828125 C340.67131589 192.7655067 340.75113025 195.26442889 340.77734375 197.79296875 C340.7854155 198.53153107 340.79348724 199.27009338 340.80180359 200.03103638 C340.81562123 201.59277006 340.82635375 203.15453364 340.83422852 204.71630859 C340.84575926 206.31079983 340.86622863 207.90525213 340.89575195 209.49951172 C340.93846341 211.8059303 340.95460045 214.11120362 340.96484375 216.41796875 C340.98235184 217.12645966 340.99985992 217.83495056 341.01789856 218.56491089 C341.0021354 222.17839243 340.62577245 224.10484878 338.63745117 227.16455078 C336.14367492 229.62902262 335.25886181 230.17910227 331.77148438 230.46582031 C328.12595899 230.20920176 326.03541786 229.30669311 322.8203125 227.59765625 C321.73468018 227.02781006 320.64904785 226.45796387 319.53051758 225.87084961 C318.3783374 225.24960205 317.22615723 224.62835449 316.0390625 223.98828125 C314.82560878 223.34485039 313.6116532 222.70236518 312.3972168 222.06079102 C308.76806944 220.13781259 305.15261259 218.19041738 301.5390625 216.23828125 C300.54084473 215.69993652 299.54262695 215.1615918 298.51416016 214.60693359 C293.0976444 211.67901063 287.69836038 208.72049915 282.30322266 205.75341797 C277.39265505 203.06175726 272.46502691 200.40162628 267.5390625 197.73828125 C259.9053441 193.60827368 252.28023739 189.46304504 244.6640625 185.30078125 C235.58220002 180.33934779 226.47492858 175.42610811 217.36083984 170.52416992 C201.53448 162.01120493 185.73810252 153.44391395 169.96777344 144.82763672 C162.83936409 140.93744548 155.69166272 137.08378218 148.5390625 133.23828125 C134.57856862 125.73005634 120.6435915 118.17724211 106.77734375 110.49609375 C93.00722938 102.86917242 79.18968108 95.34720616 65.28808594 87.96240234 C57.05977911 83.59040787 48.86019216 79.16949765 40.69091797 74.68798828 C35.71676071 71.96190135 30.72826264 69.26563677 25.72265625 66.59765625 C24.55959961 65.97648926 23.39654297 65.35532227 22.19824219 64.71533203 C19.95224294 63.51714987 17.70431758 62.32256829 15.45410156 61.13232422 C-5.57309249 49.90181629 -5.57309249 49.90181629 -8.4609375 41.23828125 C-8.73725708 36.129517 -8.77430415 31.02129859 -8.81103516 25.90576172 C-8.82760302 24.21421559 -8.8549044 22.52273972 -8.89306641 20.83154297 C-8.94792002 18.38602597 -8.96971785 15.94214356 -8.984375 13.49609375 C-9.00704437 12.74385529 -9.02971375 11.99161682 -9.05307007 11.21658325 C-9.03710106 7.23454509 -8.60546537 5.42553685 -6.14453125 2.23706055 C-3.4609375 0.23828125 -3.4609375 0.23828125 0 0 Z " fill="#253038" transform="translate(194.4609375,616.76171875)"/>
</svg>
